<svg width="24" height="17" viewBox="0 0 24 17" fill="none" xmlns="http://www.w3.org/2000/svg">
<path d="M19.98 2.16936C18.0693 0.631858 15.0468 0.371233 14.9175 0.361858C14.7168 0.344983 14.5256 0.457483 14.4431 0.643108C14.4356 0.654358 14.37 0.806233 14.2968 1.04248C15.5606 1.25623 17.1131 1.68561 18.5175 2.55748C18.7425 2.69623 18.8118 2.99248 18.6731 3.21748C18.5812 3.36561 18.4256 3.44623 18.2643 3.44623C18.1781 3.44623 18.09 3.42186 18.0112 3.37311C15.5962 1.87498 12.5812 1.79998 12 1.79998C11.4187 1.79998 8.40184 1.87498 5.98871 3.37311C5.76371 3.51373 5.46746 3.44436 5.32871 3.21936C5.18809 2.99248 5.25746 2.69811 5.48246 2.55748C6.88684 1.68748 8.43934 1.25623 9.70309 1.04436C9.62996 0.806233 9.56434 0.656233 9.55871 0.643108C9.47434 0.457483 9.28496 0.341233 9.08246 0.361858C8.95309 0.371233 5.93059 0.631858 3.99371 2.18998C2.98309 3.12561 0.959961 8.59311 0.959961 13.32C0.959961 13.4044 0.982461 13.485 1.02371 13.5581C2.41871 16.0106 6.22684 16.6519 7.09496 16.68C7.09871 16.68 7.10434 16.68 7.10996 16.68C7.26371 16.68 7.40809 16.6069 7.49809 16.4831L8.37559 15.2756C6.00746 14.6644 4.79809 13.6256 4.72871 13.5637C4.52996 13.3894 4.51121 13.0856 4.68746 12.8869C4.86184 12.6881 5.16559 12.6694 5.36434 12.8437C5.39246 12.87 7.61996 14.76 12 14.76C16.3875 14.76 18.615 12.8625 18.6375 12.8437C18.8362 12.6712 19.1381 12.6881 19.3143 12.8887C19.4887 13.0875 19.47 13.3894 19.2712 13.5637C19.2018 13.6256 17.9925 14.6644 15.6243 15.2756L16.5018 16.4831C16.5918 16.6069 16.7362 16.68 16.89 16.68C16.8956 16.68 16.9012 16.68 16.905 16.68C17.7731 16.6519 21.5812 16.0106 22.9762 13.5581C23.0175 13.485 23.04 13.4044 23.04 13.32C23.04 8.59311 21.0168 3.12561 19.98 2.16936ZM8.87996 11.4C7.95184 11.4 7.19996 10.5412 7.19996 9.47998C7.19996 8.41873 7.95184 7.55998 8.87996 7.55998C9.80809 7.55998 10.56 8.41873 10.56 9.47998C10.56 10.5412 9.80809 11.4 8.87996 11.4ZM15.12 11.4C14.1918 11.4 13.44 10.5412 13.44 9.47998C13.44 8.41873 14.1918 7.55998 15.12 7.55998C16.0481 7.55998 16.8 8.41873 16.8 9.47998C16.8 10.5412 16.0481 11.4 15.12 11.4Z" fill="white"/>
</svg>
