<svg width="26" height="26" viewBox="0 0 26 26" fill="none" xmlns="http://www.w3.org/2000/svg">
<path d="M24.6331 1.02228L14.5503 8.5109L16.4148 4.09272L24.6331 1.02228Z" fill="#E2761B" stroke="#E2761B" stroke-width="0.116924" stroke-linecap="round" stroke-linejoin="round"/>
<path d="M1.35669 1.02228L11.3584 8.58184L9.58502 4.09272L1.35669 1.02228Z" fill="#E4761B" stroke="#E4761B" stroke-width="0.116924" stroke-linecap="round" stroke-linejoin="round"/>
<path d="M21.0054 18.3809L18.3201 22.495L24.0658 24.0758L25.7175 18.472L21.0054 18.3809Z" fill="#E4761B" stroke="#E4761B" stroke-width="0.116924" stroke-linecap="round" stroke-linejoin="round"/>
<path d="M0.292725 18.472L1.93434 24.0758L7.68001 22.495L4.99465 18.3809L0.292725 18.472Z" fill="#E4761B" stroke="#E4761B" stroke-width="0.116924" stroke-linecap="round" stroke-linejoin="round"/>
<path d="M7.35573 11.4293L5.75464 13.8512L11.4598 14.1046L11.2571 7.97382L7.35573 11.4293Z" fill="#E4761B" stroke="#E4761B" stroke-width="0.116924" stroke-linecap="round" stroke-linejoin="round"/>
<path d="M18.634 11.4294L14.682 7.90289L14.5503 14.1046L20.2452 13.8513L18.634 11.4294Z" fill="#E4761B" stroke="#E4761B" stroke-width="0.116924" stroke-linecap="round" stroke-linejoin="round"/>
<path d="M7.67993 22.495L11.105 20.823L8.14607 18.5126L7.67993 22.495Z" fill="#E4761B" stroke="#E4761B" stroke-width="0.116924" stroke-linecap="round" stroke-linejoin="round"/>
<path d="M14.8848 20.823L18.32 22.495L17.8437 18.5126L14.8848 20.823Z" fill="#E4761B" stroke="#E4761B" stroke-width="0.116924" stroke-linecap="round" stroke-linejoin="round"/>
<path d="M18.32 22.495L14.8848 20.8231L15.1584 23.0625L15.128 24.0049L18.32 22.495Z" fill="#D7C1B3" stroke="#D7C1B3" stroke-width="0.116924" stroke-linecap="round" stroke-linejoin="round"/>
<path d="M7.67993 22.495L10.872 24.0049L10.8517 23.0625L11.105 20.8231L7.67993 22.495Z" fill="#D7C1B3" stroke="#D7C1B3" stroke-width="0.116924" stroke-linecap="round" stroke-linejoin="round"/>
<path d="M10.9226 17.0331L8.06494 16.192L10.0815 15.2699L10.9226 17.0331Z" fill="#233447" stroke="#233447" stroke-width="0.116924" stroke-linecap="round" stroke-linejoin="round"/>
<path d="M15.0671 17.0331L15.9082 15.2699L17.9349 16.192L15.0671 17.0331Z" fill="#233447" stroke="#233447" stroke-width="0.116924" stroke-linecap="round" stroke-linejoin="round"/>
<path d="M7.68 22.495L8.1664 18.3809L4.99463 18.472L7.68 22.495Z" fill="#CD6116" stroke="#CD6116" stroke-width="0.116924" stroke-linecap="round" stroke-linejoin="round"/>
<path d="M17.8337 18.3809L18.3201 22.495L21.0055 18.472L17.8337 18.3809Z" fill="#CD6116" stroke="#CD6116" stroke-width="0.116924" stroke-linecap="round" stroke-linejoin="round"/>
<path d="M20.2452 13.8511L14.5503 14.1045L15.0772 17.0331L15.9183 15.2699L17.9449 16.192L20.2452 13.8511Z" fill="#CD6116" stroke="#CD6116" stroke-width="0.116924" stroke-linecap="round" stroke-linejoin="round"/>
<path d="M8.06434 16.192L10.0911 15.2699L10.9219 17.0331L11.459 14.1045L5.75391 13.8511L8.06434 16.192Z" fill="#CD6116" stroke="#CD6116" stroke-width="0.116924" stroke-linecap="round" stroke-linejoin="round"/>
<path d="M5.75464 13.8511L8.14614 18.5126L8.06507 16.192L5.75464 13.8511Z" fill="#E4751F" stroke="#E4751F" stroke-width="0.116924" stroke-linecap="round" stroke-linejoin="round"/>
<path d="M17.9451 16.192L17.8438 18.5126L20.2454 13.8511L17.9451 16.192Z" fill="#E4751F" stroke="#E4751F" stroke-width="0.116924" stroke-linecap="round" stroke-linejoin="round"/>
<path d="M11.4597 14.1046L10.9226 17.0331L11.5914 20.4886L11.7434 15.9387L11.4597 14.1046Z" fill="#E4751F" stroke="#E4751F" stroke-width="0.116924" stroke-linecap="round" stroke-linejoin="round"/>
<path d="M14.5505 14.1046L14.2769 15.9285L14.3985 20.4886L15.0774 17.0331L14.5505 14.1046Z" fill="#E4751F" stroke="#E4751F" stroke-width="0.116924" stroke-linecap="round" stroke-linejoin="round"/>
<path d="M15.0774 17.0331L14.3984 20.4886L14.8849 20.823L17.8439 18.5126L17.9452 16.192L15.0774 17.0331Z" fill="#F6851B" stroke="#F6851B" stroke-width="0.116924" stroke-linecap="round" stroke-linejoin="round"/>
<path d="M8.06494 16.192L8.14601 18.5126L11.105 20.823L11.5914 20.4886L10.9226 17.0331L8.06494 16.192Z" fill="#F6851B" stroke="#F6851B" stroke-width="0.116924" stroke-linecap="round" stroke-linejoin="round"/>
<path d="M15.128 24.0049L15.1584 23.0625L14.9051 22.8396H11.0848L10.8517 23.0625L10.872 24.0049L7.67993 22.495L8.7946 23.407L11.0543 24.9777H14.9354L17.2053 23.407L18.32 22.495L15.128 24.0049Z" fill="#C0AD9E" stroke="#C0AD9E" stroke-width="0.116924" stroke-linecap="round" stroke-linejoin="round"/>
<path d="M14.8847 20.823L14.3983 20.4886H11.5913L11.1049 20.823L10.8516 23.0625L11.0846 22.8396H14.905L15.1583 23.0625L14.8847 20.823Z" fill="#161616" stroke="#161616" stroke-width="0.116924" stroke-linecap="round" stroke-linejoin="round"/>
<path d="M25.0587 8.99732L25.9201 4.86286L24.6331 1.02228L14.8848 8.25757L18.6341 11.4294L23.934 12.9797L25.1094 11.6117L24.6028 11.2469L25.4135 10.5072L24.7851 10.0208L25.5958 9.40266L25.0587 8.99732Z" fill="#763D16" stroke="#763D16" stroke-width="0.116924" stroke-linecap="round" stroke-linejoin="round"/>
<path d="M0.079834 4.86286L0.941177 8.99732L0.393971 9.40266L1.20464 10.0208L0.586506 10.5072L1.39718 11.2469L0.890512 11.6117L2.05586 12.9797L7.35565 11.4294L11.105 8.25757L1.35665 1.02228L0.079834 4.86286Z" fill="#763D16" stroke="#763D16" stroke-width="0.116924" stroke-linecap="round" stroke-linejoin="round"/>
<path d="M23.934 12.9797L18.6341 11.4293L20.2454 13.8511L17.8438 18.5126L21.0054 18.472H25.7174L23.934 12.9797Z" fill="#F6851B" stroke="#F6851B" stroke-width="0.116924" stroke-linecap="round" stroke-linejoin="round"/>
<path d="M7.35574 11.4293L2.05594 12.9797L0.292725 18.472H4.99465L8.14615 18.5126L5.75466 13.8511L7.35574 11.4293Z" fill="#F6851B" stroke="#F6851B" stroke-width="0.116924" stroke-linecap="round" stroke-linejoin="round"/>
<path d="M14.5504 14.1046L14.8848 8.25757L16.425 4.09271H9.58496L11.105 8.25757L11.4596 14.1046L11.5812 15.9488L11.5914 20.4886H14.3983L14.4186 15.9488L14.5504 14.1046Z" fill="#F6851B" stroke="#F6851B" stroke-width="0.116924" stroke-linecap="round" stroke-linejoin="round"/>
</svg>
