<svg width="43" height="43" viewBox="0 0 43 43" fill="none" xmlns="http://www.w3.org/2000/svg">
<path d="M13.25 14.575C13.25 6.4236 19.6736 0 27.825 0C35.9764 0 42.4 6.4236 42.4 14.575C42.4 22.7264 35.9764 29.15 27.825 29.15C26.4848 29.1663 25.1483 29.0059 23.85 28.673V29.15C23.85 29.8528 23.5708 30.5269 23.0738 31.0238C22.5769 31.5208 21.9028 31.8 21.2 31.8H18.55V34.45C18.55 35.1528 18.2708 35.8269 17.7738 36.3238C17.2769 36.8208 16.6028 37.1 15.9 37.1H13.25V38.425C13.25 39.4792 12.8312 40.4903 12.0858 41.2358C11.3403 41.9812 10.3292 42.4 9.275 42.4H3.975C2.92076 42.4 1.90971 41.9812 1.16425 41.2358C0.418794 40.4903 0 39.4792 0 38.425V34.2221C0 33.1674 0.4187 32.1551 1.166 31.4131L13.197 19.3795C13.5521 19.0244 13.727 18.4043 13.5733 17.6888C13.3564 16.6651 13.248 15.6214 13.25 14.575ZM34.45 10.6C34.45 9.89718 34.1708 9.22314 33.6738 8.72617C33.1769 8.2292 32.5028 7.95 31.8 7.95C31.0972 7.95 30.4231 8.2292 29.9262 8.72617C29.4292 9.22314 29.15 9.89718 29.15 10.6C29.15 11.3028 29.4292 11.9769 29.9262 12.4738C30.4231 12.9708 31.0972 13.25 31.8 13.25C32.5028 13.25 33.1769 12.9708 33.6738 12.4738C34.1708 11.9769 34.45 11.3028 34.45 10.6Z" fill="#7B8185"/>
</svg>
