<svg width="48" height="48" viewBox="0 0 48 48" fill="none" xmlns="http://www.w3.org/2000/svg">
<path d="M24 44C35.046 44 44 35.046 44 24C44 12.954 35.046 4 24 4C12.954 4 4 12.954 4 24C4 35.046 12.954 44 24 44Z" stroke="#10232F" stroke-width="4" stroke-linecap="round" stroke-linejoin="round"/>
<path d="M4 24H44" stroke="#10232F" stroke-width="4" stroke-linecap="round" stroke-linejoin="round"/>
<path d="M24 44C28.418 44 32 35.046 32 24C32 12.954 28.418 4 24 4C19.582 4 16 12.954 16 24C16 35.046 19.582 44 24 44Z" stroke="#10232F" stroke-width="4" stroke-linecap="round" stroke-linejoin="round"/>
<path d="M9.85797 10.142C11.713 12.002 13.9174 13.477 16.3444 14.4823C18.7713 15.4876 21.373 16.0034 24 16V16C26.6269 16.0034 29.2286 15.4876 31.6556 14.4823C34.0825 13.477 36.2869 12.002 38.142 10.142" stroke="#10232F" stroke-width="4" stroke-linecap="round" stroke-linejoin="round"/>
<path d="M38.142 37.858C36.2869 35.998 34.0825 34.523 31.6556 33.5177C29.2286 32.5124 26.6269 31.9966 24 32C21.373 31.9966 18.7713 32.5124 16.3444 33.5177C13.9174 34.523 11.713 35.998 9.85797 37.858" stroke="#10232F" stroke-width="4" stroke-linecap="round" stroke-linejoin="round"/>
</svg>
