<svg width="44" height="42" viewBox="0 0 44 42" fill="none" xmlns="http://www.w3.org/2000/svg">
<path d="M42.3672 20.6719L23.0594 1.37814C22.9204 1.23884 22.7552 1.12833 22.5735 1.05293C22.3917 0.977532 22.1968 0.938721 22 0.938721C21.8032 0.938721 21.6084 0.977532 21.4266 1.05293C21.2448 1.12833 21.0797 1.23884 20.9406 1.37814L1.63284 20.6719C1.07034 21.2344 0.751587 21.9984 0.751587 22.7953C0.751587 24.45 2.0969 25.7953 3.75159 25.7953H5.78596V39.5625C5.78596 40.3922 6.45627 41.0625 7.28596 41.0625H19V30.5625H24.25V41.0625H36.7141C37.5438 41.0625 38.2141 40.3922 38.2141 39.5625V25.7953H40.2485C41.0453 25.7953 41.8094 25.4813 42.3719 24.9141C43.5391 23.7422 43.5391 21.8438 42.3672 20.6719Z" fill="#10232F"/>
</svg>
