<svg width="42" height="34" viewBox="0 0 42 34" fill="none" xmlns="http://www.w3.org/2000/svg">
<path d="M24 30.9091H39V27.8182H24V30.9091ZM15 18.5455H39V15.4545H15V18.5455ZM30 6.18182H39V3.09091H30V6.18182ZM42 26.2727V32.4545C42 32.8731 41.8516 33.2353 41.5547 33.5412C41.2578 33.8471 40.9062 34 40.5 34H1.5C1.09375 34 0.742188 33.8471 0.445312 33.5412C0.148438 33.2353 0 32.8731 0 32.4545V26.2727C0 25.8542 0.148438 25.492 0.445312 25.1861C0.742188 24.8802 1.09375 24.7273 1.5 24.7273H40.5C40.9062 24.7273 41.2578 24.8802 41.5547 25.1861C41.8516 25.492 42 25.8542 42 26.2727ZM42 13.9091V20.0909C42 20.5095 41.8516 20.8717 41.5547 21.1776C41.2578 21.4834 40.9062 21.6364 40.5 21.6364H1.5C1.09375 21.6364 0.742188 21.4834 0.445312 21.1776C0.148438 20.8717 0 20.5095 0 20.0909V13.9091C0 13.4905 0.148438 13.1283 0.445312 12.8224C0.742188 12.5166 1.09375 12.3636 1.5 12.3636H40.5C40.9062 12.3636 41.2578 12.5166 41.5547 12.8224C41.8516 13.1283 42 13.4905 42 13.9091ZM42 1.54545V7.72727C42 8.14583 41.8516 8.50805 41.5547 8.81392C41.2578 9.11979 40.9062 9.27273 40.5 9.27273H1.5C1.09375 9.27273 0.742188 9.11979 0.445312 8.81392C0.148438 8.50805 0 8.14583 0 7.72727V1.54545C0 1.12689 0.148438 0.764678 0.445312 0.458807C0.742188 0.152936 1.09375 0 1.5 0H40.5C40.9062 0 41.2578 0.152936 41.5547 0.458807C41.8516 0.764678 42 1.12689 42 1.54545Z" fill="#10232F"/>
</svg>
