<svg width="41" height="39" viewBox="0 0 41 39" fill="none" xmlns="http://www.w3.org/2000/svg">
<path d="M20.5 0.652176C17.7045 0.652176 15.5206 1.66033 13.9482 3.67663C12.3757 5.69294 11.5895 8.27038 11.5895 11.409C11.5701 15.3084 12.8513 18.3995 15.4332 20.6821C15.7633 20.9864 15.8797 21.3764 15.7827 21.8519L15.1129 23.2215C14.8994 23.678 14.5839 24.0347 14.1665 24.2914C13.7492 24.5482 12.8707 24.9144 11.5312 25.39C11.473 25.409 10.2451 25.7989 7.84766 26.5598C5.45017 27.3207 4.17377 27.7391 4.01847 27.8152C2.38778 28.481 1.32008 29.1753 0.815341 29.8981C0.27178 31.0965 0 34.1304 0 39H41C41 34.1304 40.7282 31.0965 40.1847 29.8981C39.6799 29.1753 38.6122 28.481 36.9815 27.8152C36.8262 27.7391 35.5498 27.3207 33.1523 26.5598C30.7549 25.7989 29.527 25.409 29.4688 25.39C28.1293 24.9144 27.2508 24.5482 26.8335 24.2914C26.4161 24.0347 26.1006 23.678 25.8871 23.2215L25.2173 21.8519C25.1203 21.3764 25.2367 20.9864 25.5668 20.6821C28.1487 18.3995 29.4299 15.3084 29.4105 11.409C29.4105 8.27038 28.6243 5.69294 27.0518 3.67663C25.4794 1.66033 23.2955 0.652176 20.5 0.652176Z" fill="#10232F"/>
</svg>
